<svg width="430" height="430" viewBox="0 0 430 430" fill="none" xmlns="http://www.w3.org/2000/svg">
<path d="M335.503 75C335.503 71.6863 332.817 69 329.503 69C326.19 69 323.503 71.6863 323.503 75V79.1442C313.789 79.7409 306 87.737 306 97.6451C306 107.943 314.416 116.188 324.67 116.188H334.369C338.095 116.188 341.01 119.169 341 122.714C340.99 126.335 337.977 129.229 334.547 129.203L329.74 129.162C329.662 129.159 329.583 129.158 329.503 129.158C329.459 129.158 329.414 129.158 329.37 129.159L312.425 129.015C309.111 128.987 306.402 131.65 306.374 134.964C306.346 138.277 309.009 140.986 312.323 141.014L323.503 141.11V145C323.503 148.314 326.19 151 329.503 151C332.817 151 335.503 148.314 335.503 145V141.181C345.135 140.701 352.972 132.638 353 122.748C353.029 112.452 344.625 104.188 334.369 104.188H324.67C320.929 104.188 318 101.202 318 97.6451C318 94.0924 320.925 91.1085 324.67 91.1085H329.221C329.315 91.1128 329.409 91.115 329.503 91.115C329.598 91.115 329.692 91.1128 329.785 91.1085H344.305C347.618 91.1085 350.305 88.4222 350.305 85.1085C350.305 81.7948 347.618 79.1085 344.305 79.1085H335.503V75Z" fill="url(#paint0_linear_2164_10838)"/>
<path d="M159.243 184.243C161.586 181.899 161.586 178.101 159.243 175.757C156.9 173.414 153.1 173.414 150.757 175.757L80.7574 245.757C78.4142 248.1 78.4142 251.9 80.7574 254.243C83.1005 256.586 86.8995 256.586 89.2426 254.243L159.243 184.243Z" fill="url(#paint1_linear_2164_10838)"/>
<path fill-rule="evenodd" clip-rule="evenodd" d="M129 242.5C129 232.283 137.283 224 147.5 224C157.717 224 166 232.283 166 242.5C166 252.717 157.717 261 147.5 261C137.283 261 129 252.717 129 242.5ZM147.5 236C143.91 236 141 238.91 141 242.5C141 246.09 143.91 249 147.5 249C151.09 249 154 246.09 154 242.5C154 238.91 151.09 236 147.5 236Z" fill="url(#paint2_linear_2164_10838)"/>
<path fill-rule="evenodd" clip-rule="evenodd" d="M92.5 169C82.2827 169 74 177.283 74 187.5C74 197.717 82.2827 206 92.5 206C102.717 206 111 197.717 111 187.5C111 177.283 102.717 169 92.5 169ZM86 187.5C86 183.91 88.9101 181 92.5 181C96.0899 181 99 183.91 99 187.5C99 191.09 96.0899 194 92.5 194C88.9101 194 86 191.09 86 187.5Z" fill="url(#paint3_linear_2164_10838)"/>
<path d="M335.503 285C335.503 281.686 332.817 279 329.503 279C326.19 279 323.503 281.686 323.503 285V289.144C313.789 289.741 306 297.737 306 307.645C306 317.943 314.416 326.188 324.67 326.188H334.369C338.095 326.188 341.01 329.169 341 332.714C340.99 336.335 337.977 339.229 334.547 339.203L329.74 339.162C329.688 339.16 329.636 339.159 329.583 339.158C329.557 339.158 329.53 339.158 329.503 339.158C329.459 339.158 329.414 339.158 329.37 339.159L312.425 339.015C309.111 338.987 306.402 341.65 306.374 344.964C306.346 348.277 309.009 350.986 312.323 351.014L323.503 351.11V355C323.503 358.314 326.19 361 329.503 361C332.817 361 335.503 358.314 335.503 355V351.181C345.135 350.701 352.972 342.638 353 332.748C353.029 322.452 344.625 314.188 334.369 314.188H324.67C320.929 314.188 318 311.202 318 307.645C318 304.092 320.925 301.108 324.67 301.108H329.221C329.315 301.113 329.409 301.115 329.503 301.115C329.598 301.115 329.692 301.113 329.785 301.108H344.305C347.618 301.108 350.305 298.422 350.305 295.108C350.305 291.795 347.618 289.108 344.305 289.108H335.503V285Z" fill="url(#paint4_linear_2164_10838)"/>
<path fill-rule="evenodd" clip-rule="evenodd" d="M259 110C259 70.7878 290.788 39 330 39C369.212 39 401 70.7878 401 110C401 149.212 369.212 181 330 181C304.595 181 282.306 167.657 269.76 147.596L213.365 176.481C218.285 188.323 221 201.327 221 215C221 228.645 218.294 241.658 213.39 253.532L269.76 282.404C282.306 262.343 304.595 249 330 249C369.212 249 401 280.788 401 320C401 359.212 369.212 391 330 391C290.788 391 259 359.212 259 320C259 310.472 260.877 301.382 264.281 293.081L208.153 264.332C190.862 295.164 157.864 316 120 316C64.2192 316 19 270.781 19 215C19 159.178 64.2606 114.5 120 114.5C157.805 114.5 190.789 135.052 208.101 165.694L264.281 136.919C260.877 128.618 259 119.528 259 110ZM330 51C297.415 51 271 77.4152 271 110C271 142.585 297.415 169 330 169C362.585 169 389 142.585 389 110C389 77.4152 362.585 51 330 51ZM120 126.5C70.8053 126.5 31 165.888 31 215C31 264.153 70.8467 304 120 304C169.153 304 209 264.153 209 215C209 165.888 169.195 126.5 120 126.5ZM330 261C297.415 261 271 287.415 271 320C271 352.585 297.415 379 330 379C362.585 379 389 352.585 389 320C389 287.415 362.585 261 330 261Z" fill="url(#paint5_linear_2164_10838)"/>
<defs>
<linearGradient id="paint0_linear_2164_10838" x1="126.81" y1="101.366" x2="298.27" y2="313.192" gradientUnits="userSpaceOnUse">
<stop stop-color="#CA5EEE"/>
<stop offset="1" stop-color="#4BE1EC"/>
</linearGradient>
<linearGradient id="paint1_linear_2164_10838" x1="126.81" y1="101.366" x2="298.27" y2="313.192" gradientUnits="userSpaceOnUse">
<stop stop-color="#CA5EEE"/>
<stop offset="1" stop-color="#4BE1EC"/>
</linearGradient>
<linearGradient id="paint2_linear_2164_10838" x1="126.81" y1="101.366" x2="298.27" y2="313.192" gradientUnits="userSpaceOnUse">
<stop stop-color="#CA5EEE"/>
<stop offset="1" stop-color="#4BE1EC"/>
</linearGradient>
<linearGradient id="paint3_linear_2164_10838" x1="126.81" y1="101.366" x2="298.27" y2="313.192" gradientUnits="userSpaceOnUse">
<stop stop-color="#CA5EEE"/>
<stop offset="1" stop-color="#4BE1EC"/>
</linearGradient>
<linearGradient id="paint4_linear_2164_10838" x1="126.81" y1="101.366" x2="298.27" y2="313.192" gradientUnits="userSpaceOnUse">
<stop stop-color="#CA5EEE"/>
<stop offset="1" stop-color="#4BE1EC"/>
</linearGradient>
<linearGradient id="paint5_linear_2164_10838" x1="126.81" y1="101.366" x2="298.27" y2="313.192" gradientUnits="userSpaceOnUse">
<stop stop-color="#CA5EEE"/>
<stop offset="1" stop-color="#4BE1EC"/>
</linearGradient>
</defs>
</svg>
