<svg width="430" height="430" viewBox="0 0 430 430" fill="none" xmlns="http://www.w3.org/2000/svg">
<path d="M267.715 347.752C278.52 347.752 287.308 338.963 287.308 328.159V325.889C287.308 325.846 287.307 325.804 287.306 325.762C287.305 325.735 287.304 325.709 287.302 325.683C287.261 321.055 287.008 316.849 286.611 313.669C286.396 311.951 286.123 310.399 285.774 309.209C285.607 308.641 285.364 307.947 284.987 307.323C284.763 306.954 283.706 305.264 281.539 305.264H281.332C280.601 305.264 280.023 305.478 279.748 305.591C279.417 305.726 279.119 305.89 278.873 306.039C278.377 306.339 277.845 306.734 277.289 307.187C276.685 307.68 275.981 308.302 275.171 309.069C272.237 306.885 269.062 305.6 265.652 305.6C262.242 305.6 259.066 306.885 256.133 309.069C255.323 308.302 254.619 307.68 254.015 307.187C253.459 306.734 252.926 306.339 252.431 306.039C252.184 305.89 251.887 305.726 251.556 305.591C251.281 305.478 250.702 305.264 249.971 305.264H249.765C247.598 305.264 246.54 306.954 246.317 307.323C245.94 307.947 245.697 308.641 245.53 309.209C245.181 310.399 244.908 311.951 244.693 313.669C244.296 316.849 244.043 321.055 244.002 325.683C243.999 325.729 243.997 325.774 243.996 325.82C243.996 325.843 243.996 325.866 243.996 325.889V328.159C243.996 338.963 252.784 347.752 263.589 347.752H267.715Z" fill="url(#paint0_linear_2035_506)"/>
<path fill-rule="evenodd" clip-rule="evenodd" d="M289.314 95.8201L289.314 95.8181L289.314 95.8156C289.234 93.0791 289.152 90.3019 289.086 87.5073C289.086 87.4743 289.086 87.4414 289.085 87.4084L289.085 87.3719L289.084 87.3441C288.814 75.8147 285.151 66.641 278.984 59.7708C272.888 52.9795 264.736 48.8678 256.14 46.6551C239.119 42.2741 219.071 44.9832 204.98 50.7816C204.794 50.8581 204.612 50.9439 204.435 51.0386C199.331 53.7665 194.132 54.8098 190.575 54.9792C190.541 54.9808 190.508 54.9827 190.474 54.9849C188.954 55.083 187.39 54.5472 186.132 53.4531L186.124 53.4466C185.555 52.953 184.787 52.2374 183.874 51.3859C180.924 48.6351 176.454 44.4663 172.222 41.784C169.319 39.9149 165.786 39.1129 162.605 39.0114C159.409 38.9094 155.814 39.4902 152.769 41.1818C152.747 41.1939 152.725 41.206 152.704 41.2183C142.437 47.0898 137.232 57.3286 134.862 68.2003C132.496 79.0519 132.768 91.2709 134.041 102.463C135.32 113.721 137.658 124.311 139.661 132.055C140.665 135.937 141.591 139.128 142.27 141.357C142.609 142.473 142.887 143.349 143.082 143.953C143.18 144.255 143.257 144.489 143.311 144.651L143.352 144.774L143.374 144.84L143.391 144.892L143.398 144.913C143.399 144.915 143.399 144.916 147 143.692L143.4 144.916C144 146.684 145.355 148.004 147 148.614V171.973C147 194.446 158.072 214.32 175.06 226.441V237.464H172.085C125.547 237.464 87.8894 275.121 87.8894 321.66V353.02C87.8894 364.793 97.3843 374.288 109.157 374.288H128.212C146.33 375.731 155.732 379.645 162.861 383.15C163.822 383.623 164.774 384.108 165.729 384.595L165.731 384.596C171.955 387.771 178.286 391 187.869 391H239.965C249.552 391 255.903 387.768 262.146 384.591C263.099 384.106 264.049 383.623 265.007 383.152C272.155 379.644 281.557 375.731 299.622 374.288H320.843C332.642 374.288 342.111 364.664 342.111 353.02V321.66C342.111 275.121 304.453 237.464 257.915 237.464H252.535L252.482 227.57C270.39 215.577 282.174 195.158 282.174 171.973V144.535C284.443 142.235 285.95 139.361 286.973 136.387C288.36 132.354 289.036 127.629 289.367 122.651C289.877 114.966 289.603 105.661 289.314 95.8283L289.314 95.8201ZM146.587 70.7564C148.545 61.7726 152.406 55.2307 158.622 51.6579C159.298 51.2916 160.591 50.9532 162.222 51.0053C163.879 51.0582 165.132 51.4893 165.731 51.8769L165.756 51.893L165.782 51.9099C168.981 53.9337 171.976 56.7251 174.782 59.3412C175.975 60.4539 177.135 61.535 178.261 62.5117C181.736 65.531 186.339 67.2618 191.193 66.9633C196.227 66.7169 203.058 65.3178 209.808 61.7717C221.919 56.8585 239.153 54.674 253.148 58.2763C260.111 60.0684 265.939 63.2017 270.054 67.7865C274.072 72.2632 276.841 78.5441 277.083 87.4515C277.083 87.5018 277.084 87.5523 277.085 87.6028C277.158 90.7055 277.245 93.7072 277.33 96.6016C277.54 103.785 277.73 110.308 277.625 116.074C275.871 111.472 273.661 107.019 271.078 102.839C263.789 91.0454 253.225 80.936 240.714 75.7521C239.118 75.0909 237.315 75.1495 235.766 75.9129C234.226 76.6715 233.085 78.0532 232.631 79.7078L232.624 79.7335C232.612 79.7741 232.587 79.8564 232.548 79.9779C232.47 80.2211 232.335 80.6214 232.13 81.1607C231.72 82.2397 231.033 83.8736 229.971 85.9201C227.846 90.0106 224.217 95.7542 218.288 102.02C207.056 113.891 187.302 127.917 153.175 135.936C152.625 134.06 151.972 131.731 151.278 129.05C149.361 121.639 147.16 111.63 145.964 101.108C144.76 90.5201 144.619 79.7794 146.587 70.7564ZM270.174 141.539C270.17 141.664 270.17 141.788 270.174 141.912V171.973C270.174 191.963 259.501 209.445 243.539 219.036C243.442 219.09 243.345 219.148 243.251 219.208C235.069 224.056 225.516 226.838 215.31 226.838H213.865C183.549 226.838 159 202.29 159 171.973V146.869C193.432 138.229 214.431 123.557 227.005 110.268C233.778 103.11 238.034 96.429 240.62 91.4511C240.961 90.7942 241.273 90.1671 241.558 89.5725C249.08 94.0377 255.797 100.94 260.87 109.148C266.509 118.274 269.87 128.619 270.185 138.299C270.178 138.416 270.174 138.534 270.174 138.652V141.539ZM215.31 238.838C224.209 238.838 232.7 237.102 240.464 233.95V242.948C240.464 256.965 229.017 268.412 215 268.412H212.524C198.507 268.412 187.06 256.965 187.06 242.948V233.254C195.265 236.846 204.331 238.838 213.865 238.838H215.31ZM175.628 249.464H172.085C132.175 249.464 99.8894 281.749 99.8894 321.66V353.02C99.8894 358.166 104.012 362.288 109.157 362.288H128.448C128.604 362.288 128.76 362.294 128.916 362.306C148.919 363.87 159.842 368.294 168.156 372.382C169.308 372.948 170.374 373.485 171.376 373.99L171.382 373.993L171.383 373.994C177.554 377.104 181.316 379 187.869 379H239.965C246.529 379 250.314 377.096 256.512 373.979C257.511 373.477 258.573 372.943 259.72 372.38C267.981 368.325 278.804 363.935 298.481 362.341C298.743 362.306 299.01 362.288 299.282 362.288H320.843C325.962 362.288 330.111 358.089 330.111 353.02V321.66C330.111 281.749 297.825 249.464 257.915 249.464H251.896C248.8 267.018 233.423 280.412 215 280.412H212.524C194.101 280.412 178.724 267.018 175.628 249.464Z" fill="url(#paint1_linear_2035_506)"/>
<defs>
<linearGradient id="paint0_linear_2035_506" x1="157.039" y1="112.803" x2="354.683" y2="266.611" gradientUnits="userSpaceOnUse">
<stop stop-color="#CB5EEE"/>
<stop offset="1" stop-color="#4BE1EC"/>
</linearGradient>
<linearGradient id="paint1_linear_2035_506" x1="157.039" y1="112.803" x2="354.683" y2="266.611" gradientUnits="userSpaceOnUse">
<stop stop-color="#CB5EEE"/>
<stop offset="1" stop-color="#4BE1EC"/>
</linearGradient>
</defs>
</svg>
